# xmcd CD database file
# Copyright (C) 1993-1998 Ti Kan
#
# Track frame offsets:
#  150
#  37735
#  72522
#  93985
#  116542
#  135987
#  161910
#  171667
#  184637
#  205412
#  223220
#  245115
#  277290
#  305367
#  326305
#
# Disc length: 4686 seconds
#
# Revision: 1
# Processed by: cddbd v1.4b41PL1 Copyright (c) Steve Scherf et al.
# Submitted via: CDWizzard Release:4.31
#
DISCID=e6124c0f
DTITLE=Steinberg and Pittsburg Sym Orch - Davis and Royal Phil. - Mozart Symp
DTITLE=hony No.40 and various
DYEAR=1900
DGENRE=
TTITLE0=Symph No. 40.: I. Allegro molto
TTITLE1=Symph No. 40.:II. Andante
TTITLE2=Symph No. 40.:III. Menuetto and Trio
TTITLE3=Symph No. 40.:IV. Finale: Allegro assai
TTITLE4=Eine Kleine Nachtmusik:I. Allegro
TTITLE5=Eine Kleine Nachtmusik:II. Romanze
TTITLE6=Eine Kleine Nachtmusik:III. Menuetto (Allegretto)
TTITLE7=Eine Kleine Nachtmusik: IV. Rondo(Allegro)
TTITLE8=Serenata Nottura: I. Marcia (Maestoso)
TTITLE9=Serenata Nottura: II. Menuetto and Trio
TTITLE10=Serenata Nottura: III. Rondo (Allegretto - Adagio - Allegro - Al
TTITLE10=legretto)
TTITLE11=Overtures: Magic Flute
TTITLE12=Overtures: Don Giovanni
TTITLE13=Overtures: Cosi Fan Tutti
TTITLE14=Overtures: The abduction from the Seraglio
EXTD=
EXTT0=
EXTT1=
EXTT2=
EXTT3=
EXTT4=
EXTT5=
EXTT6=
EXTT7=
EXTT8=
EXTT9=
EXTT10=
EXTT11=
EXTT12=
EXTT13=
EXTT14=
PLAYORDER=
